<?xml version="1.0" encoding="UTF-8" standalone="no"?><!DOCTYPE svg PUBLIC "-//W3C//DTD SVG 1.1//EN" "http://www.w3.org/Graphics/SVG/1.1/DTD/svg11.dtd"><svg width="100%" height="100%" viewBox="0 0 2088 663" version="1.1" xmlns="http://www.w3.org/2000/svg" xmlns:xlink="http://www.w3.org/1999/xlink" xml:space="preserve" xmlns:serif="http://www.serif.com/" style="fill-rule:evenodd;clip-rule:evenodd;stroke-linejoin:round;stroke-miterlimit:2;"><g><g><path d="M664.774,244.844c-6.44,0.001 -12.281,-1.28 -17.524,-3.842c-5.241,-2.563 -9.406,-6.445 -12.494,-11.647c-3.088,-5.202 -4.632,-11.776 -4.633,-19.722l-0.007,-53.785l16.875,-0.002l0.007,53.91c0.001,4.348 0.719,7.984 2.154,10.908c1.435,2.923 3.514,5.108 6.237,6.554c2.723,1.446 5.958,2.169 9.705,2.169c3.831,-0.001 7.09,-0.724 9.777,-2.171c2.689,-1.447 4.754,-3.633 6.197,-6.556c1.442,-2.925 2.163,-6.561 2.162,-10.908l-0.006,-53.911l16.875,-0.002l0.006,53.785c0.001,7.946 -1.591,14.52 -4.776,19.724c-3.185,5.202 -7.455,9.085 -12.811,11.65c-5.355,2.563 -11.27,3.845 -17.744,3.846Z" style="fill:#2e2d62;fill-rule:nonzero;"/><path d="M716.518,243.337l-0.011,-87.5l16.873,-0.002l0.004,34.643l31.66,-34.647l20.797,-0.003l-32.201,34.659l33.153,52.841l-20.591,0.003l-24.603,-39.808l-8.212,8.837l0.004,30.975l-16.873,0.002Z" style="fill:#2e2d62;fill-rule:nonzero;"/><path d="M798.143,243.327l-0.011,-87.5l32.719,-0.004c7.028,-0.001 12.843,1.205 17.445,3.619c4.603,2.413 8.032,5.634 10.287,9.662c2.254,4.029 3.382,8.532 3.382,13.512c0.001,4.666 -1.098,9.019 -3.295,13.059c-2.197,4.039 -5.602,7.287 -10.214,9.743c-4.611,2.455 -10.547,3.683 -17.806,3.684l-15.638,0.002l0.004,34.221l-16.873,0.002Zm45.369,-0.006l-18.009,-38.463l18.272,-0.002l19.001,38.463l-19.264,0.002Zm-28.502,-46.496l14.803,-0.002c5.103,-0.001 8.862,-1.247 11.279,-3.74c2.416,-2.494 3.624,-5.794 3.623,-9.901c-0,-4.043 -1.192,-7.267 -3.575,-9.673c-2.382,-2.406 -6.176,-3.609 -11.383,-3.608l-14.75,0.002l0.003,26.922Z" style="fill:#2e2d62;fill-rule:nonzero;"/><path d="M877.018,243.317l-0.011,-87.5l16.873,-0.002l0.011,87.5l-16.873,0.002Z" style="fill:#2e2d62;fill-rule:nonzero;"/><path d="M940.393,243.309l-0.011,-87.5l29.338,-0.004c10.157,-0.001 18.551,1.806 25.18,5.421c6.631,3.613 11.551,8.691 14.76,15.232c3.209,6.541 4.814,14.248 4.815,23.121c0.001,8.804 -1.602,16.482 -4.809,23.031c-3.208,6.549 -8.123,11.635 -14.744,15.258c-6.621,3.623 -15.026,5.436 -25.215,5.437l-29.314,0.004Zm16.871,-14.467l11.533,-0.002c7.171,-0.001 12.826,-1.165 16.967,-3.492c4.14,-2.329 7.086,-5.682 8.836,-10.06c1.751,-4.379 2.626,-9.615 2.625,-15.707c-0.001,-6.16 -0.877,-11.426 -2.629,-15.797c-1.752,-4.371 -4.698,-7.74 -8.839,-10.108c-4.141,-2.369 -9.797,-3.553 -16.967,-3.553l-11.533,0.002l0.007,58.717Z" style="fill:#2e2d62;fill-rule:nonzero;"/><path d="M1028.86,243.297l-0.008,-62.937l16.875,-0.002l0.008,62.937l-16.875,0.002Zm8.465,-71.614c-3.06,0 -5.558,-0.906 -7.496,-2.72c-1.937,-1.815 -2.905,-4.081 -2.905,-6.8c-0.001,-2.767 0.967,-5.041 2.903,-6.821c1.937,-1.78 4.436,-2.67 7.496,-2.671c3.074,-0 5.589,0.89 7.543,2.669c1.955,1.78 2.932,4.053 2.933,6.82c0,2.719 -0.977,4.986 -2.931,6.801c-1.954,1.814 -4.468,2.722 -7.543,2.722Z" style="fill:#2e2d62;fill-rule:nonzero;"/><path d="M1089.76,272.29c-6.009,0 -11.257,-0.728 -15.745,-2.186c-4.485,-1.458 -7.954,-3.662 -10.407,-6.614c-2.452,-2.95 -3.678,-6.609 -3.679,-10.976c-0,-2.922 0.75,-5.678 2.249,-8.268c1.5,-2.59 3.693,-4.942 6.579,-7.055c2.887,-2.115 6.463,-3.933 10.73,-5.455l6.445,8.353c-3.838,1.248 -6.604,2.811 -8.301,4.689c-1.695,1.879 -2.542,3.885 -2.542,6.019c0,1.944 0.645,3.567 1.932,4.869c1.29,1.302 3.034,2.277 5.233,2.923c2.201,0.649 4.672,0.972 7.412,0.972c2.659,-0 4.981,-0.337 6.965,-1.011c1.986,-0.672 3.536,-1.648 4.652,-2.928c1.116,-1.28 1.674,-2.799 1.673,-4.557c0,-2.3 -0.792,-4.149 -2.375,-5.546c-1.583,-1.397 -4.745,-2.262 -9.489,-2.595c-4.286,-0.333 -8.079,-0.814 -11.379,-1.446c-3.298,-0.632 -6.182,-1.38 -8.653,-2.245c-2.47,-0.864 -4.571,-1.832 -6.305,-2.905c-1.733,-1.074 -3.134,-2.153 -4.203,-3.236l-0.001,-2.875l13.395,-14.408l12.057,3.835l-15.748,15.564l4.849,-8.333c0.867,0.569 1.745,1.081 2.633,1.535c0.889,0.455 2.004,0.862 3.346,1.223c1.341,0.359 3.084,0.7 5.23,1.024c2.147,0.323 4.892,0.632 8.235,0.929c5.515,0.477 10.033,1.495 13.553,3.053c3.52,1.558 6.114,3.668 7.782,6.329c1.668,2.66 2.503,5.9 2.503,9.72c0.001,3.709 -1.018,7.205 -3.055,10.489c-2.038,3.285 -5.168,5.958 -9.392,8.019c-4.222,2.062 -9.615,3.093 -16.179,3.094Zm0.09,-47.578c-5.271,0 -9.807,-1.025 -13.606,-3.077c-3.8,-2.051 -6.72,-4.806 -8.759,-8.264c-2.04,-3.46 -3.06,-7.322 -3.06,-11.586c-0.001,-4.264 1.02,-8.117 3.063,-11.559c2.044,-3.442 4.964,-6.197 8.762,-8.267c3.8,-2.07 8.331,-3.106 13.594,-3.107c5.303,-0.001 9.849,1.034 13.639,3.104c3.789,2.068 6.688,4.823 8.696,8.264c2.008,3.442 3.013,7.294 3.013,11.559c0.001,4.264 -1.003,8.126 -3.01,11.586c-2.007,3.458 -4.905,6.214 -8.694,8.267c-3.789,2.052 -8.335,3.079 -13.638,3.08Zm-0.002,-12.875c3.221,-0.001 5.83,-0.85 7.828,-2.548c1.997,-1.699 2.995,-4.177 2.995,-7.436c-0.001,-3.244 -1,-5.709 -2.997,-7.396c-1.998,-1.689 -4.607,-2.533 -7.829,-2.533c-3.22,0.001 -5.852,0.846 -7.898,2.535c-2.044,1.687 -3.066,4.153 -3.065,7.396c0,3.26 1.018,5.738 3.053,7.436c2.037,1.697 4.675,2.546 7.913,2.546Zm10.394,-19.607l-2.761,-11.879l25.97,-0.003l0.002,10l-23.211,1.882Z" style="fill:#2e2d62;fill-rule:nonzero;"/><path d="M1137.61,243.284l-0.008,-62.938l16.875,-0.002l0.008,62.937l-16.875,0.003Zm8.465,-71.615c-3.06,0.001 -5.558,-0.906 -7.496,-2.72c-1.937,-1.814 -2.905,-4.081 -2.905,-6.8c-0.001,-2.767 0.967,-5.04 2.903,-6.821c1.937,-1.78 4.436,-2.67 7.496,-2.671c3.074,0 5.589,0.89 7.543,2.669c1.955,1.78 2.932,4.053 2.933,6.82c0,2.719 -0.977,4.986 -2.931,6.802c-1.954,1.814 -4.468,2.721 -7.543,2.721Z" style="fill:#2e2d62;fill-rule:nonzero;"/><path d="M1199.8,243.276c-4.385,0 -8.234,-0.693 -11.545,-2.079c-3.311,-1.386 -5.88,-3.682 -7.706,-6.888c-1.825,-3.206 -2.737,-7.576 -2.738,-13.109l-0.003,-26.783l-10.791,0.001l-0.002,-14.076l10.791,-0.001l1.882,-17.229l14.969,-0.002l0.002,17.229l16.625,-0.002l0.002,14.076l-16.603,0.002l0.003,26.93c0,2.842 0.621,4.817 1.862,5.923c1.241,1.106 3.373,1.658 6.397,1.658l8.174,-0.001l0.002,14.349l-11.321,0.002Z" style="fill:#2e2d62;fill-rule:nonzero;"/><path d="M1246.8,244.77c-5.211,0 -9.526,-0.853 -12.947,-2.559c-3.421,-1.708 -5.962,-4.01 -7.622,-6.906c-1.661,-2.895 -2.491,-6.072 -2.492,-9.53c-0,-3.844 0.982,-7.221 2.948,-10.132c1.967,-2.911 4.944,-5.196 8.931,-6.852c3.988,-1.657 8.983,-2.486 14.986,-2.487l15.504,-0.002c-0,-3.119 -0.401,-5.687 -1.202,-7.703c-0.8,-2.016 -2.079,-3.53 -3.839,-4.54c-1.759,-1.012 -4.088,-1.517 -6.988,-1.517c-3.158,0.001 -5.844,0.692 -8.058,2.075c-2.214,1.383 -3.58,3.471 -4.099,6.263l-16.393,0.002c0.458,-4.504 1.95,-8.396 4.475,-11.675c2.526,-3.28 5.883,-5.829 10.071,-7.647c4.189,-1.819 8.881,-2.728 14.076,-2.729c5.951,-0.001 11.082,0.988 15.395,2.967c4.313,1.977 7.63,4.849 9.952,8.616c2.323,3.767 3.484,8.367 3.485,13.8l0.005,39.051l-14.211,0.002l-1.873,-9.617c-0.872,1.625 -1.947,3.111 -3.226,4.459c-1.277,1.348 -2.744,2.523 -4.401,3.524c-1.658,1.002 -3.522,1.775 -5.592,2.319c-2.07,0.545 -4.365,0.817 -6.885,0.818Zm4.014,-13.052c2.166,0 4.101,-0.39 5.805,-1.168c1.705,-0.781 3.177,-1.86 4.413,-3.237c1.237,-1.379 2.221,-2.969 2.953,-4.77c0.733,-1.802 1.221,-3.718 1.464,-5.748l0,-0.168l-12.922,0.001c-2.54,0.001 -4.625,0.326 -6.254,0.978c-1.627,0.651 -2.821,1.554 -3.581,2.709c-0.759,1.154 -1.139,2.488 -1.138,4.004c-0,1.595 0.383,2.945 1.149,4.051c0.765,1.104 1.844,1.938 3.236,2.503c1.392,0.564 3.017,0.846 4.875,0.845Z" style="fill:#2e2d62;fill-rule:nonzero;"/><path d="M1298.8,243.263l-0.011,-90l16.875,-0.002l0.011,90l-16.875,0.002Z" style="fill:#2e2d62;fill-rule:nonzero;"/><path d="M1361.89,243.255l-0.011,-87.5l32.719,-0.004c7.028,-0.001 12.843,1.205 17.445,3.619c4.603,2.413 8.032,5.634 10.287,9.662c2.254,4.029 3.382,8.533 3.382,13.512c0.001,4.666 -1.098,9.019 -3.295,13.059c-2.197,4.039 -5.602,7.287 -10.214,9.743c-4.611,2.455 -10.547,3.683 -17.806,3.684l-15.638,0.002l0.004,34.221l-16.873,0.002Zm45.369,-0.006l-18.009,-38.462l18.272,-0.003l19.001,38.463l-19.264,0.002Zm-28.502,-46.496l14.803,-0.002c5.103,-0.001 8.862,-1.247 11.279,-3.74c2.416,-2.494 3.624,-5.794 3.623,-9.901c-0,-4.043 -1.192,-7.267 -3.575,-9.673c-2.382,-2.406 -6.176,-3.609 -11.383,-3.608l-14.75,0.002l0.003,26.922Z" style="fill:#2e2d62;fill-rule:nonzero;"/><path d="M1466.9,244.742c-6.336,0 -11.929,-1.36 -16.78,-4.08c-4.849,-2.721 -8.637,-6.518 -11.365,-11.391c-2.725,-4.875 -4.089,-10.511 -4.09,-16.908c-0,-6.569 1.343,-12.37 4.031,-17.403c2.688,-5.033 6.454,-8.983 11.296,-11.851c4.842,-2.869 10.485,-4.304 16.929,-4.305c6.256,-0.001 11.718,1.359 16.385,4.08c4.667,2.721 8.299,6.42 10.896,11.096c2.598,4.676 3.898,9.989 3.899,15.939c-0,0.834 -0.013,1.76 -0.037,2.78c-0.025,1.018 -0.103,2.085 -0.234,3.203l-51.113,0.006l-0.002,-10.322l34.317,-0.004c-0.217,-4.021 -1.639,-7.216 -4.265,-9.586c-2.626,-2.371 -5.893,-3.556 -9.801,-3.555c-2.878,0 -5.513,0.665 -7.906,1.993c-2.394,1.327 -4.287,3.313 -5.681,5.958c-1.393,2.644 -2.089,5.993 -2.089,10.047l0.001,3.646c0,3.429 0.649,6.408 1.946,8.94c1.299,2.531 3.116,4.485 5.454,5.864c2.337,1.379 5.024,2.068 8.061,2.067c3.146,0 5.724,-0.653 7.736,-1.96c2.011,-1.307 3.551,-3.03 4.618,-5.168l17.19,-0.002c-1.172,3.926 -3.133,7.47 -5.886,10.633c-2.751,3.163 -6.117,5.668 -10.1,7.513c-3.983,1.846 -8.453,2.769 -13.41,2.77Z" style="fill:#2e2d62;fill-rule:nonzero;"/><path d="M1537.63,244.733c-5.752,0 -10.741,-0.922 -14.965,-2.766c-4.224,-1.845 -7.541,-4.376 -9.95,-7.595c-2.409,-3.219 -3.812,-6.887 -4.208,-11.003l16.832,-0.002c0.361,1.553 1.046,2.974 2.055,4.261c1.01,1.288 2.358,2.31 4.043,3.066c1.687,0.757 3.67,1.135 5.952,1.134c2.25,-0 4.098,-0.315 5.546,-0.946c1.449,-0.631 2.525,-1.472 3.228,-2.522c0.703,-1.051 1.055,-2.168 1.055,-3.353c-0,-1.782 -0.507,-3.142 -1.52,-4.08c-1.012,-0.939 -2.488,-1.706 -4.426,-2.3c-1.939,-0.596 -4.267,-1.166 -6.985,-1.708c-2.987,-0.634 -5.914,-1.381 -8.78,-2.24c-2.866,-0.86 -5.435,-1.962 -7.707,-3.305c-2.272,-1.344 -4.077,-3.062 -5.413,-5.154c-1.335,-2.092 -2.002,-4.678 -2.003,-7.757c-0,-3.706 1.012,-7.05 3.036,-10.032c2.026,-2.983 4.951,-5.335 8.777,-7.054c3.825,-1.72 8.421,-2.581 13.788,-2.582c7.601,-0.001 13.62,1.706 18.058,5.121c4.438,3.413 7.049,8.109 7.835,14.087l-15.871,0.002c-0.452,-1.973 -1.546,-3.504 -3.284,-4.595c-1.735,-1.091 -4.01,-1.637 -6.824,-1.636c-2.973,0 -5.245,0.542 -6.816,1.626c-1.572,1.082 -2.357,2.469 -2.357,4.16c0,1.178 0.502,2.224 1.506,3.137c1.006,0.912 2.472,1.695 4.399,2.349c1.928,0.653 4.276,1.274 7.041,1.862c4.864,0.99 9.116,2.115 12.758,3.375c3.644,1.259 6.509,3.085 8.595,5.478c2.086,2.391 3.119,5.824 3.099,10.296c0.063,4.042 -0.993,7.62 -3.167,10.735c-2.174,3.115 -5.241,5.55 -9.2,7.306c-3.959,1.756 -8.668,2.634 -14.127,2.635Z" style="fill:#2e2d62;fill-rule:nonzero;"/><path d="M1608.65,244.723c-6.336,0.001 -11.929,-1.359 -16.78,-4.079c-4.849,-2.721 -8.637,-6.518 -11.365,-11.392c-2.725,-4.874 -4.089,-10.51 -4.09,-16.907c-0,-6.569 1.343,-12.37 4.031,-17.403c2.688,-5.033 6.454,-8.983 11.296,-11.851c4.842,-2.869 10.485,-4.304 16.929,-4.305c6.256,-0.001 11.718,1.359 16.385,4.08c4.667,2.721 8.299,6.419 10.896,11.096c2.598,4.676 3.898,9.989 3.899,15.939c-0,0.833 -0.013,1.76 -0.037,2.779c-0.025,1.019 -0.103,2.086 -0.234,3.204l-51.113,0.006l-0.002,-10.322l34.317,-0.005c-0.217,-4.02 -1.639,-7.215 -4.265,-9.585c-2.626,-2.371 -5.893,-3.556 -9.801,-3.555c-2.878,0 -5.513,0.664 -7.906,1.993c-2.394,1.327 -4.287,3.313 -5.681,5.958c-1.393,2.644 -2.089,5.993 -2.089,10.047l0.001,3.646c0,3.429 0.649,6.408 1.946,8.939c1.299,2.532 3.116,4.486 5.454,5.865c2.337,1.379 5.024,2.068 8.061,2.067c3.146,-0 5.724,-0.653 7.736,-1.96c2.011,-1.307 3.551,-3.03 4.618,-5.168l17.19,-0.002c-1.172,3.926 -3.133,7.47 -5.886,10.633c-2.751,3.163 -6.117,5.668 -10.1,7.513c-3.983,1.846 -8.453,2.769 -13.41,2.769Z" style="fill:#2e2d62;fill-rule:nonzero;"/><path d="M1674.93,244.715c-5.211,0.001 -9.526,-0.852 -12.947,-2.559c-3.421,-1.708 -5.962,-4.01 -7.622,-6.905c-1.661,-2.896 -2.491,-6.073 -2.492,-9.531c-0,-3.844 0.982,-7.221 2.948,-10.131c1.967,-2.912 4.944,-5.196 8.931,-6.853c3.988,-1.657 8.983,-2.486 14.986,-2.486l15.504,-0.002c-0,-3.12 -0.401,-5.688 -1.202,-7.703c-0.8,-2.017 -2.079,-3.531 -3.839,-4.541c-1.759,-1.011 -4.088,-1.517 -6.988,-1.516c-3.158,-0 -5.844,0.692 -8.058,2.075c-2.214,1.383 -3.58,3.47 -4.099,6.262l-16.393,0.002c0.458,-4.504 1.95,-8.395 4.475,-11.674c2.526,-3.281 5.883,-5.83 10.071,-7.648c4.189,-1.818 8.881,-2.728 14.076,-2.728c5.951,-0.001 11.082,0.988 15.395,2.966c4.313,1.978 7.63,4.85 9.952,8.616c2.323,3.767 3.484,8.367 3.485,13.801l0.005,39.05l-14.211,0.002l-1.873,-9.617c-0.872,1.625 -1.947,3.112 -3.226,4.46c-1.277,1.348 -2.744,2.522 -4.402,3.524c-1.657,1.001 -3.521,1.774 -5.591,2.319c-2.07,0.544 -4.365,0.817 -6.885,0.817Zm4.014,-13.051c2.166,-0.001 4.101,-0.39 5.805,-1.169c1.705,-0.78 3.177,-1.859 4.413,-3.237c1.237,-1.379 2.221,-2.969 2.953,-4.77c0.733,-1.802 1.221,-3.718 1.464,-5.748l0,-0.168l-12.922,0.002c-2.54,0 -4.625,0.326 -6.254,0.977c-1.627,0.651 -2.821,1.554 -3.581,2.709c-0.759,1.154 -1.139,2.489 -1.138,4.005c-0,1.595 0.383,2.945 1.149,4.05c0.765,1.104 1.844,1.939 3.236,2.504c1.392,0.563 3.017,0.845 4.875,0.845Z" style="fill:#2e2d62;fill-rule:nonzero;"/><path d="M1726.92,243.208l-0.008,-62.937l14.996,-0.002l1.578,11.578c1.57,-2.728 3.484,-5.062 5.743,-7.001c2.26,-1.94 4.881,-3.439 7.861,-4.495c2.98,-1.056 6.26,-1.585 9.84,-1.585l0.002,17.814l-5.76,0.001c-2.505,0 -4.825,0.286 -6.959,0.856c-2.133,0.57 -3.981,1.511 -5.544,2.823c-1.564,1.312 -2.768,3.099 -3.613,5.362c-0.843,2.262 -1.265,5.084 -1.264,8.467l0.003,29.117l-16.875,0.002Z" style="fill:#2e2d62;fill-rule:nonzero;"/><path d="M1807.57,244.698c-6.353,0.001 -11.981,-1.406 -16.883,-4.22c-4.902,-2.816 -8.734,-6.689 -11.498,-11.62c-2.762,-4.932 -4.144,-10.568 -4.145,-16.908c-0.001,-6.528 1.38,-12.273 4.141,-17.235c2.762,-4.962 6.594,-8.862 11.494,-11.698c4.902,-2.837 10.537,-4.256 16.906,-4.256c8.051,-0.001 14.818,2.106 20.302,6.323c5.484,4.216 8.978,10.037 10.48,17.466l-17.857,0.002c-0.745,-2.928 -2.293,-5.222 -4.644,-6.88c-2.35,-1.66 -5.159,-2.49 -8.428,-2.489c-2.936,-0 -5.55,0.737 -7.841,2.211c-2.29,1.475 -4.089,3.598 -5.396,6.37c-1.307,2.771 -1.96,6.094 -1.959,9.967c-0,2.883 0.376,5.471 1.127,7.764c0.753,2.291 1.81,4.245 3.169,5.861c1.36,1.615 2.967,2.848 4.821,3.698c1.854,0.849 3.882,1.273 6.084,1.273c2.194,-0 4.17,-0.367 5.928,-1.1c1.757,-0.734 3.266,-1.807 4.525,-3.22c1.259,-1.413 2.131,-3.114 2.616,-5.103l17.858,-0.003c-1.492,7.24 -4.991,13.016 -10.498,17.328c-5.507,4.312 -12.275,6.468 -20.302,6.469Z" style="fill:#2e2d62;fill-rule:nonzero;"/><path d="M1852.92,243.192l-0.011,-90l16.875,-0.002l0.004,36.367c2.055,-3.286 4.826,-5.909 8.314,-7.868c3.488,-1.959 7.517,-2.938 12.087,-2.939c5.224,-0.001 9.629,1.083 13.214,3.252c3.586,2.169 6.305,5.354 8.157,9.556c1.852,4.201 2.779,9.362 2.779,15.482l0.005,36.145l-16.75,0.002l-0.004,-34.58c-0.001,-5.019 -1.057,-8.882 -3.168,-11.592c-2.11,-2.709 -5.388,-4.064 -9.834,-4.063c-2.788,0 -5.311,0.674 -7.57,2.02c-2.259,1.347 -4.029,3.272 -5.308,5.777c-1.28,2.502 -1.919,5.536 -1.919,9.101l0.004,33.34l-16.875,0.002Z" style="fill:#2e2d62;fill-rule:nonzero;"/><path d="M661.056,419.844c-6.319,0.001 -11.964,-1.091 -16.934,-3.277c-4.97,-2.187 -8.882,-5.363 -11.736,-9.53c-2.852,-4.166 -4.351,-9.194 -4.498,-15.085l17.887,-0.002c0.098,2.635 0.768,4.987 2.009,7.056c1.242,2.069 2.981,3.701 5.217,4.896c2.236,1.195 4.896,1.792 7.979,1.792c2.647,-0 4.951,-0.426 6.912,-1.278c1.961,-0.853 3.487,-2.075 4.58,-3.665c1.092,-1.591 1.638,-3.486 1.638,-5.684c-0.001,-2.465 -0.61,-4.536 -1.829,-6.214c-1.219,-1.68 -2.895,-3.109 -5.026,-4.287c-2.132,-1.179 -4.583,-2.249 -7.354,-3.208c-2.771,-0.959 -5.704,-1.95 -8.797,-2.971c-6.933,-2.272 -12.207,-5.275 -15.822,-9.01c-3.615,-3.735 -5.423,-8.712 -5.424,-14.929c-0,-5.238 1.261,-9.723 3.786,-13.454c2.525,-3.731 6.033,-6.605 10.524,-8.622c4.492,-2.018 9.62,-3.027 15.384,-3.028c5.926,-0 11.122,1.028 15.589,3.086c4.467,2.058 8.002,4.986 10.604,8.782c2.604,3.795 3.979,8.312 4.125,13.551l-18.107,0.002c-0.049,-1.977 -0.589,-3.814 -1.62,-5.512c-1.03,-1.699 -2.462,-3.074 -4.296,-4.126c-1.833,-1.053 -4.007,-1.58 -6.521,-1.579c-2.189,-0.083 -4.171,0.255 -5.946,1.014c-1.774,0.758 -3.178,1.861 -4.212,3.309c-1.032,1.448 -1.548,3.258 -1.548,5.428c0,2.1 0.507,3.867 1.52,5.299c1.013,1.432 2.446,2.654 4.297,3.667c1.853,1.013 4.016,1.959 6.489,2.837c2.473,0.878 5.169,1.794 8.088,2.749c4.398,1.466 8.413,3.219 12.046,5.26c3.634,2.042 6.536,4.694 8.704,7.958c2.168,3.264 3.253,7.55 3.254,12.857c0,4.607 -1.189,8.875 -3.569,12.803c-2.378,3.928 -5.857,7.096 -10.434,9.504c-4.577,2.407 -10.23,3.61 -16.959,3.611Z" style="fill:#2e2d62;fill-rule:nonzero;"/><path d="M747.372,418.333l-26.914,-34.465l24.055,-28.472l19.982,-0.002l-31.15,35.519l-0.005,-13.361l35.011,40.779l-20.979,0.002Zm-41.302,0.006l-0.012,-90l16.875,-0.003l0.012,90l-16.875,0.003Z" style="fill:#2e2d62;fill-rule:nonzero;"/><path d="M778.753,418.329l-0.008,-62.937l16.875,-0.002l0.008,62.937l-16.875,0.002Zm8.466,-71.614c-3.06,0 -5.559,-0.906 -7.497,-2.72c-1.936,-1.815 -2.905,-4.081 -2.905,-6.8c-0,-2.767 0.967,-5.041 2.903,-6.821c1.938,-1.78 4.436,-2.67 7.496,-2.671c3.074,-0 5.589,0.889 7.544,2.669c1.954,1.78 2.932,4.053 2.932,6.82c0,2.719 -0.977,4.986 -2.931,6.801c-1.954,1.814 -4.468,2.722 -7.542,2.722Z" style="fill:#2e2d62;fill-rule:nonzero;"/><path d="M812.57,418.325l-0.012,-90l16.875,-0.002l0.012,90l-16.875,0.002Z" style="fill:#2e2d62;fill-rule:nonzero;"/><path d="M845.945,418.321l-0.012,-90l16.875,-0.002l0.012,90l-16.875,0.002Z" style="fill:#2e2d62;fill-rule:nonzero;"/><path d="M905.029,419.813c-5.753,0.001 -10.741,-0.921 -14.965,-2.765c-4.225,-1.845 -7.541,-4.376 -9.951,-7.595c-2.409,-3.22 -3.812,-6.887 -4.208,-11.003l16.832,-0.002c0.361,1.553 1.046,2.973 2.055,4.261c1.011,1.288 2.359,2.31 4.044,3.066c1.686,0.756 3.67,1.134 5.951,1.134c2.25,-0 4.099,-0.316 5.547,-0.946c1.449,-0.632 2.525,-1.472 3.228,-2.522c0.703,-1.051 1.054,-2.169 1.054,-3.354c-0,-1.781 -0.507,-3.141 -1.52,-4.08c-1.012,-0.938 -2.487,-1.705 -4.426,-2.3c-1.939,-0.596 -4.267,-1.165 -6.985,-1.708c-2.987,-0.634 -5.913,-1.38 -8.779,-2.239c-2.866,-0.86 -5.435,-1.962 -7.708,-3.306c-2.272,-1.343 -4.076,-3.061 -5.412,-5.153c-1.335,-2.092 -2.003,-4.678 -2.003,-7.758c-0.001,-3.705 1.011,-7.049 3.035,-10.031c2.026,-2.984 4.952,-5.335 8.777,-7.054c3.825,-1.721 8.421,-2.581 13.789,-2.582c7.6,-0.001 13.619,1.706 18.057,5.121c4.438,3.413 7.05,8.109 7.836,14.087l-15.871,0.002c-0.452,-1.973 -1.547,-3.505 -3.284,-4.596c-1.736,-1.091 -4.011,-1.636 -6.825,-1.636c-2.972,0.001 -5.244,0.543 -6.816,1.626c-1.571,1.083 -2.357,2.469 -2.357,4.161c0,1.178 0.503,2.224 1.507,3.136c1.005,0.913 2.471,1.696 4.398,2.349c1.929,0.654 4.276,1.275 7.042,1.863c4.863,0.99 9.116,2.115 12.758,3.375c3.643,1.259 6.508,3.085 8.594,5.477c2.086,2.392 3.119,5.824 3.099,10.297c0.063,4.042 -0.992,7.62 -3.166,10.735c-2.174,3.115 -5.241,5.55 -9.201,7.306c-3.959,1.755 -8.668,2.634 -14.126,2.634Z" style="fill:#2e2d62;fill-rule:nonzero;"/><path d="M1014.84,419.799c-8.724,0.001 -16.239,-1.894 -22.545,-5.684c-6.306,-3.791 -11.157,-9.082 -14.555,-15.874c-3.398,-6.791 -5.098,-14.638 -5.099,-23.54c-0.001,-8.95 1.697,-16.834 5.093,-23.651c3.396,-6.817 8.246,-12.146 14.551,-15.986c6.305,-3.842 13.82,-5.764 22.544,-5.765c10.604,-0.001 19.281,2.629 26.03,7.891c6.751,5.263 10.957,12.691 12.62,22.286l-18.469,0.002c-1.073,-4.684 -3.323,-8.342 -6.749,-10.973c-3.426,-2.633 -7.947,-3.949 -13.561,-3.948c-5.197,0.001 -9.654,1.219 -13.371,3.656c-3.716,2.435 -6.56,5.901 -8.534,10.398c-1.972,4.495 -2.957,9.857 -2.957,16.088c0.001,6.181 0.988,11.507 2.961,15.978c1.975,4.471 4.82,7.912 8.537,10.323c3.718,2.41 8.175,3.614 13.371,3.614c5.615,-0.001 10.125,-1.215 13.531,-3.641c3.408,-2.427 5.66,-5.844 6.759,-10.249l18.486,-0.002c-1.651,9.051 -5.853,16.16 -12.607,21.326c-6.753,5.166 -15.432,7.75 -26.036,7.751Z" style="fill:#2e2d62;fill-rule:nonzero;"/><path d="M1088.7,419.79c-5.211,0 -9.527,-0.853 -12.948,-2.559c-3.421,-1.708 -5.961,-4.01 -7.622,-6.905c-1.66,-2.896 -2.491,-6.073 -2.491,-9.531c-0.001,-3.844 0.982,-7.221 2.948,-10.132c1.967,-2.911 4.944,-5.196 8.93,-6.852c3.988,-1.657 8.984,-2.486 14.986,-2.487l15.504,-0.002c-0,-3.119 -0.401,-5.687 -1.202,-7.702c-0.8,-2.017 -2.079,-3.531 -3.838,-4.541c-1.76,-1.012 -4.089,-1.517 -6.989,-1.517c-3.157,0.001 -5.844,0.692 -8.058,2.076c-2.214,1.383 -3.58,3.47 -4.099,6.262l-16.393,0.002c0.458,-4.504 1.95,-8.396 4.476,-11.675c2.525,-3.28 5.882,-5.829 10.071,-7.647c4.188,-1.819 8.88,-2.728 14.076,-2.729c5.95,-0 11.082,0.989 15.395,2.967c4.312,1.977 7.63,4.849 9.952,8.616c2.322,3.767 3.483,8.367 3.484,13.8l0.005,39.051l-14.211,0.002l-1.872,-9.617c-0.872,1.625 -1.948,3.112 -3.226,4.459c-1.277,1.348 -2.745,2.523 -4.402,3.524c-1.658,1.002 -3.521,1.775 -5.592,2.319c-2.07,0.545 -4.365,0.817 -6.884,0.818Zm4.014,-13.052c2.165,0 4.1,-0.389 5.804,-1.168c1.706,-0.78 3.177,-1.859 4.414,-3.237c1.237,-1.379 2.221,-2.969 2.952,-4.77c0.733,-1.802 1.221,-3.718 1.464,-5.748l0,-0.168l-12.921,0.001c-2.541,0.001 -4.625,0.327 -6.254,0.978c-1.628,0.651 -2.822,1.554 -3.582,2.709c-0.759,1.154 -1.138,2.489 -1.138,4.004c0,1.595 0.383,2.946 1.149,4.051c0.766,1.104 1.845,1.938 3.237,2.503c1.392,0.564 3.017,0.846 4.875,0.845Z" style="fill:#2e2d62;fill-rule:nonzero;"/><path d="M1168.32,418.28c-4.386,0 -8.234,-0.693 -11.546,-2.079c-3.311,-1.386 -5.88,-3.682 -7.706,-6.888c-1.824,-3.206 -2.737,-7.576 -2.738,-13.109l-0.003,-26.783l-10.791,0.001l-0.002,-14.076l10.791,-0.001l1.883,-17.229l14.968,-0.002l0.003,17.229l16.625,-0.002l0.001,14.076l-16.603,0.002l0.003,26.93c0.001,2.842 0.621,4.817 1.862,5.923c1.241,1.106 3.374,1.658 6.397,1.658l8.174,-0.001l0.002,14.349l-11.32,0.002Z" style="fill:#2e2d62;fill-rule:nonzero;"/><path d="M1215.32,419.774c-5.211,0 -9.527,-0.853 -12.948,-2.559c-3.421,-1.708 -5.961,-4.01 -7.622,-6.906c-1.66,-2.895 -2.491,-6.072 -2.491,-9.53c-0.001,-3.844 0.982,-7.221 2.948,-10.132c1.967,-2.911 4.944,-5.196 8.93,-6.852c3.988,-1.657 8.984,-2.486 14.986,-2.487l15.504,-0.002c-0,-3.119 -0.401,-5.687 -1.202,-7.703c-0.8,-2.016 -2.079,-3.53 -3.838,-4.54c-1.76,-1.012 -4.089,-1.517 -6.989,-1.517c-3.157,0.001 -5.844,0.692 -8.058,2.075c-2.214,1.383 -3.58,3.471 -4.099,6.263l-16.393,0.002c0.458,-4.504 1.95,-8.396 4.476,-11.675c2.525,-3.28 5.882,-5.829 10.071,-7.647c4.188,-1.819 8.88,-2.728 14.076,-2.729c5.95,-0.001 11.082,0.988 15.395,2.967c4.312,1.977 7.63,4.849 9.952,8.616c2.322,3.767 3.483,8.367 3.484,13.8l0.005,39.051l-14.211,0.002l-1.872,-9.617c-0.872,1.625 -1.948,3.111 -3.226,4.459c-1.277,1.348 -2.745,2.523 -4.402,3.524c-1.658,1.002 -3.521,1.775 -5.592,2.319c-2.07,0.545 -4.365,0.817 -6.884,0.818Zm4.014,-13.052c2.165,0 4.1,-0.39 5.804,-1.168c1.706,-0.781 3.177,-1.859 4.414,-3.237c1.237,-1.379 2.221,-2.969 2.952,-4.77c0.733,-1.802 1.221,-3.718 1.464,-5.748l0,-0.168l-12.921,0.001c-2.541,0.001 -4.625,0.326 -6.254,0.978c-1.628,0.651 -2.822,1.554 -3.582,2.709c-0.759,1.154 -1.138,2.489 -1.138,4.004c0,1.595 0.383,2.945 1.149,4.051c0.766,1.104 1.845,1.938 3.237,2.503c1.392,0.564 3.017,0.846 4.875,0.845Z" style="fill:#2e2d62;fill-rule:nonzero;"/><path d="M1267.32,418.267l-0.012,-90l16.875,-0.002l0.012,90l-16.875,0.002Z" style="fill:#2e2d62;fill-rule:nonzero;"/><path d="M1308.7,445.762l15.247,-34.502l-3.771,0l-25.24,-55.934l18.336,-0.002l18.078,40.507l16.159,-40.512l17.982,-0.002l-38.936,90.442l-17.855,0.003Z" style="fill:#2e2d62;fill-rule:nonzero;"/><path d="M1398.9,419.75c-5.753,0.001 -10.741,-0.921 -14.965,-2.765c-4.225,-1.845 -7.541,-4.376 -9.951,-7.595c-2.409,-3.22 -3.812,-6.887 -4.208,-11.003l16.832,-0.002c0.361,1.553 1.046,2.973 2.055,4.261c1.011,1.288 2.359,2.31 4.044,3.066c1.686,0.756 3.67,1.134 5.951,1.134c2.25,-0 4.099,-0.316 5.547,-0.946c1.449,-0.632 2.525,-1.472 3.228,-2.522c0.703,-1.051 1.054,-2.169 1.054,-3.354c-0,-1.781 -0.507,-3.141 -1.52,-4.079c-1.012,-0.939 -2.487,-1.706 -4.426,-2.301c-1.939,-0.596 -4.267,-1.165 -6.985,-1.708c-2.987,-0.634 -5.913,-1.38 -8.779,-2.239c-2.866,-0.86 -5.435,-1.962 -7.708,-3.306c-2.272,-1.343 -4.076,-3.061 -5.412,-5.153c-1.335,-2.092 -2.003,-4.678 -2.003,-7.758c-0.001,-3.705 1.011,-7.049 3.035,-10.031c2.026,-2.984 4.952,-5.335 8.777,-7.054c3.825,-1.721 8.421,-2.581 13.789,-2.582c7.6,-0.001 13.619,1.706 18.057,5.121c4.438,3.413 7.05,8.109 7.836,14.087l-15.871,0.002c-0.452,-1.973 -1.547,-3.505 -3.284,-4.596c-1.736,-1.091 -4.011,-1.636 -6.825,-1.636c-2.972,0.001 -5.244,0.543 -6.816,1.626c-1.571,1.083 -2.357,2.469 -2.357,4.161c0,1.178 0.503,2.224 1.507,3.136c1.005,0.913 2.471,1.696 4.398,2.349c1.929,0.654 4.276,1.275 7.042,1.863c4.863,0.99 9.116,2.115 12.758,3.375c3.643,1.259 6.508,3.085 8.594,5.477c2.086,2.392 3.119,5.824 3.099,10.297c0.063,4.042 -0.992,7.62 -3.166,10.735c-2.174,3.115 -5.241,5.55 -9.201,7.306c-3.959,1.755 -8.668,2.634 -14.126,2.634Z" style="fill:#2e2d62;fill-rule:nonzero;"/><path d="M1466.2,418.242c-4.386,0 -8.234,-0.693 -11.546,-2.079c-3.311,-1.386 -5.88,-3.682 -7.706,-6.888c-1.824,-3.206 -2.737,-7.576 -2.738,-13.109l-0.003,-26.783l-10.791,0.002l-0.002,-14.077l10.791,-0.001l1.883,-17.229l14.968,-0.002l0.003,17.229l16.625,-0.002l0.001,14.076l-16.603,0.002l0.003,26.93c0.001,2.842 0.621,4.817 1.862,5.923c1.241,1.106 3.374,1.658 6.397,1.658l8.174,-0.001l0.002,14.349l-11.32,0.002Z" style="fill:#2e2d62;fill-rule:nonzero;"/></g><path d="M392.844,266.984l39.691,34.286c11.371,9.823 18.214,25.048 18.011,40.073l-1.411,104.325c-0.208,15.327 -7.714,28.11 -19.658,33.479l-79.488,35.726c-11.945,5.369 -26.488,2.496 -38.088,-7.525l-78.955,-68.203c-11.371,-9.823 -18.215,-25.048 -18.011,-40.073l0.709,-52.444l39.264,33.918c11.6,10.02 26.144,12.893 38.088,7.525l79.488,-35.727c11.945,-5.368 19.451,-18.152 19.658,-33.479l0.702,-51.881Zm-177.2,79.644l-39.691,-34.286c-11.371,-9.822 -18.214,-25.047 -18.011,-40.072l1.411,-104.325c0.208,-15.327 7.714,-28.111 19.658,-33.479l79.488,-35.727c11.945,-5.368 26.488,-2.495 38.088,7.525l78.955,68.204c11.371,9.822 18.214,25.047 18.011,40.072l-0.709,52.444l-39.265,-33.917c-11.599,-10.021 -26.143,-12.894 -38.087,-7.525l-79.488,35.726c-11.945,5.369 -19.451,18.152 -19.658,33.48l-0.702,51.88Z" style="fill:#fa6862;"/><path d="M304.256,405.147l-47.541,22.153c-13.62,6.346 -30.312,6.348 -43.934,0.005l-94.582,-44.043c-13.896,-6.471 -22.48,-18.557 -22.482,-31.652l-0.011,-87.148c-0.002,-13.096 8.58,-25.184 22.474,-31.658l94.571,-44.068c13.62,-6.346 30.312,-6.348 43.934,-0.005l47.547,22.14l-47.03,21.915c-13.895,6.474 -22.476,18.563 -22.474,31.658l0.011,87.148c0.001,13.095 8.586,25.181 22.482,31.652l47.035,21.903Zm-0.024,-194.276l47.541,-22.152c13.62,-6.347 30.312,-6.349 43.934,-0.006l94.582,44.043c13.896,6.471 22.48,18.557 22.482,31.653l0.011,87.147c0.002,13.096 -8.579,25.184 -22.474,31.658l-94.571,44.068c-13.62,6.346 -30.312,6.349 -43.934,0.005l-47.547,-22.14l47.031,-21.915c13.894,-6.474 22.475,-18.562 22.474,-31.658l-0.012,-87.148c-0.001,-13.095 -8.586,-25.181 -22.482,-31.652l-47.035,-21.903Z" style="fill:#29a69d;"/><clipPath id="_clip1"><path d="M304.256,405.147l-47.541,22.153c-13.62,6.346 -30.312,6.348 -43.934,0.005l-94.582,-44.043c-13.896,-6.471 -22.48,-18.557 -22.482,-31.652l-0.011,-87.148c-0.002,-13.096 8.58,-25.184 22.474,-31.658l94.571,-44.068c13.62,-6.346 30.312,-6.348 43.934,-0.005l47.547,22.14l-47.03,21.915c-13.895,6.474 -22.476,18.563 -22.474,31.658l0.011,87.148c0.001,13.095 8.586,25.181 22.482,31.652l47.035,21.903Zm-0.024,-194.276l47.541,-22.152c13.62,-6.347 30.312,-6.349 43.934,-0.006l94.582,44.043c13.896,6.471 22.48,18.557 22.482,31.653l0.011,87.147c0.002,13.096 -8.579,25.184 -22.474,31.658l-94.571,44.068c-13.62,6.346 -30.312,6.349 -43.934,0.005l-47.547,-22.14l47.031,-21.915c13.894,-6.474 22.475,-18.562 22.474,-31.658l-0.012,-87.148c-0.001,-13.095 -8.586,-25.181 -22.482,-31.652l-47.035,-21.903Z"/></clipPath><g clip-path="url(#_clip1)"><path d="M304.256,405.147l-47.541,22.153c-13.62,6.346 -30.312,6.348 -43.934,0.005l-94.582,-44.043c-13.896,-6.471 -22.48,-18.557 -22.482,-31.652l-0.011,-87.148c-0.002,-13.096 8.58,-25.184 22.474,-31.658l94.571,-44.068c13.62,-6.346 30.312,-6.348 43.934,-0.005l47.547,22.14l-47.03,21.915c-13.895,6.474 -22.476,18.563 -22.474,31.658l0.011,87.148c0.001,13.095 8.586,25.181 22.482,31.652l47.035,21.903Zm-0.024,-194.276l47.541,-22.152c13.62,-6.347 30.312,-6.349 43.934,-0.006l94.582,44.043c13.896,6.471 22.48,18.557 22.482,31.653l0.011,87.147c0.002,13.096 -8.579,25.184 -22.474,31.658l-94.571,44.068c-13.62,6.346 -30.312,6.349 -43.934,0.005l-47.547,-22.14l47.031,-21.915c13.894,-6.474 22.475,-18.562 22.474,-31.658l-0.012,-87.148c-0.001,-13.095 -8.586,-25.181 -22.482,-31.652l-47.035,-21.903Z" style="fill:#29a69d;"/></g><path d="M221.509,257.111l6.049,-52.099c1.733,-14.926 10.48,-29.143 23.021,-37.42l87.08,-57.47c12.793,-8.443 27.586,-9.42 38.739,-2.558l74.227,45.664c11.154,6.862 16.951,20.505 15.183,35.732l-12.033,103.638c-1.733,14.926 -10.48,29.143 -23.021,37.42l-43.775,28.89l5.984,-51.539c1.768,-15.227 -4.029,-28.87 -15.183,-35.732l-74.227,-45.664c-11.153,-6.862 -25.946,-5.885 -38.739,2.558l-43.305,28.58Zm165.47,101.797l-6.049,52.099c-1.733,14.925 -10.48,29.143 -23.021,37.419l-87.08,57.47c-12.793,8.443 -27.585,9.42 -38.739,2.558l-74.226,-45.664c-11.154,-6.861 -16.952,-20.505 -15.184,-35.731l12.033,-103.638c1.733,-14.926 10.48,-29.144 23.021,-37.42l43.775,-28.89l-5.984,51.539c-1.768,15.226 4.03,28.87 15.184,35.732l74.226,45.663c11.154,6.862 25.946,5.886 38.739,-2.558l43.305,-28.579Z" style="fill:#2e2d62;"/><path d="M326.37,304.928l-25.696,-0l0,-17.175c0,-4.994 -0.274,-8.11 -0.824,-9.349c-0.549,-1.238 -1.759,-1.858 -3.631,-1.858c-2.116,0 -3.459,0.753 -4.029,2.259c-0.569,1.505 -0.854,4.76 -0.854,9.765l-0,45.899c-0,4.801 0.285,7.934 0.854,9.399c0.57,1.465 1.852,2.197 3.846,2.197c1.912,0 3.163,-0.734 3.753,-2.202c0.59,-1.468 0.885,-4.915 0.885,-10.34l0,-12.421l25.696,-0l0,3.851c0,10.228 -0.722,17.481 -2.167,21.76c-1.444,4.279 -4.638,8.028 -9.582,11.248c-4.944,3.218 -11.037,4.828 -18.28,4.828c-7.528,-0 -13.733,-1.363 -18.616,-4.089c-4.883,-2.727 -8.118,-6.501 -9.704,-11.322c-1.587,-4.822 -2.381,-12.075 -2.381,-21.759l0,-28.87c0,-7.121 0.244,-12.461 0.733,-16.022c0.488,-3.56 1.943,-6.988 4.364,-10.284c2.421,-3.296 5.778,-5.89 10.07,-7.782c4.293,-1.892 9.227,-2.838 14.801,-2.838c7.569,-0 13.815,1.463 18.738,4.388c4.924,2.926 8.159,6.573 9.705,10.942c1.546,4.368 2.319,11.164 2.319,20.388l0,9.387Z" style="fill:#2e2d62;fill-rule:nonzero;"/></g></svg>