<?xml version="1.0" encoding="UTF-8" standalone="no"?><!DOCTYPE svg PUBLIC "-//W3C//DTD SVG 1.1//EN" "http://www.w3.org/Graphics/SVG/1.1/DTD/svg11.dtd"><svg width="100%" height="100%" viewBox="0 0 501 159" version="1.1" xmlns="http://www.w3.org/2000/svg" xmlns:xlink="http://www.w3.org/1999/xlink" xml:space="preserve" xmlns:serif="http://www.serif.com/" style="fill-rule:evenodd;clip-rule:evenodd;stroke-linejoin:round;stroke-miterlimit:2;"><g><g transform="matrix(1,0,0,1,-13.0727,3.679)"><g transform="matrix(37,0,0,37,173.073,66.611)"><path d="M0.069,-0l-0,-0.7l0.234,0c0.082,0 0.149,0.014 0.202,0.043c0.053,0.029 0.092,0.07 0.118,0.122c0.026,0.053 0.038,0.114 0.038,0.185c0,0.071 -0.012,0.132 -0.038,0.184c-0.026,0.053 -0.065,0.094 -0.118,0.123c-0.053,0.029 -0.12,0.043 -0.202,0.043l-0.234,0Zm0.135,-0.116l0.092,0c0.057,0 0.103,-0.009 0.136,-0.028c0.033,-0.018 0.056,-0.045 0.07,-0.08c0.014,-0.035 0.021,-0.077 0.021,-0.126c0,-0.049 -0.007,-0.091 -0.021,-0.126c-0.014,-0.035 -0.037,-0.062 -0.07,-0.081c-0.033,-0.019 -0.079,-0.028 -0.136,-0.028l-0.092,-0l-0,0.469Z" style="fill:#2e2d62;fill-rule:nonzero;"/></g><g transform="matrix(37,0,0,37,199.232,66.611)"><path d="M0.069,-0l0,-0.504l0.135,0l0,0.504l-0.135,-0Zm0.068,-0.573c-0.024,0 -0.044,-0.007 -0.06,-0.022c-0.015,-0.014 -0.023,-0.032 -0.023,-0.054c0,-0.022 0.008,-0.04 0.023,-0.055c0.016,-0.014 0.036,-0.021 0.06,-0.021c0.025,0 0.045,0.007 0.061,0.021c0.015,0.015 0.023,0.033 0.023,0.055c0,0.022 -0.008,0.04 -0.023,0.054c-0.016,0.015 -0.036,0.022 -0.061,0.022Z" style="fill:#2e2d62;fill-rule:nonzero;"/></g><g transform="matrix(37,0,0,37,209.37,66.611)"><path d="M0.283,0.232c-0.048,0 -0.09,-0.006 -0.126,-0.018c-0.036,-0.011 -0.064,-0.029 -0.084,-0.052c-0.019,-0.024 -0.029,-0.053 -0.029,-0.088c0,-0.024 0.006,-0.046 0.018,-0.066c0.012,-0.021 0.03,-0.04 0.053,-0.057c0.023,-0.017 0.051,-0.031 0.086,-0.043l0.051,0.066c-0.031,0.01 -0.053,0.023 -0.066,0.038c-0.014,0.015 -0.021,0.031 -0.021,0.048c0,0.016 0.005,0.029 0.016,0.039c0.01,0.01 0.024,0.018 0.042,0.023c0.017,0.006 0.037,0.008 0.059,0.008c0.021,0 0.04,-0.003 0.056,-0.008c0.016,-0.005 0.028,-0.013 0.037,-0.023c0.009,-0.011 0.013,-0.023 0.013,-0.037c0,-0.018 -0.006,-0.033 -0.019,-0.044c-0.012,-0.011 -0.038,-0.018 -0.076,-0.021c-0.034,-0.003 -0.064,-0.006 -0.091,-0.012c-0.026,-0.005 -0.049,-0.011 -0.069,-0.017c-0.02,-0.007 -0.036,-0.015 -0.05,-0.024c-0.014,-0.008 -0.025,-0.017 -0.034,-0.026l0,-0.023l0.107,-0.115l0.097,0.031l-0.126,0.124l0.038,-0.066c0.007,0.004 0.014,0.008 0.022,0.012c0.007,0.004 0.016,0.007 0.026,0.01c0.011,0.003 0.025,0.005 0.042,0.008c0.017,0.003 0.039,0.005 0.066,0.007c0.044,0.004 0.08,0.012 0.108,0.025c0.029,0.012 0.049,0.029 0.063,0.05c0.013,0.022 0.02,0.048 0.02,0.078c-0,0.03 -0.008,0.058 -0.025,0.084c-0.016,0.026 -0.041,0.048 -0.075,0.064c-0.034,0.017 -0.077,0.025 -0.129,0.025Zm0,-0.381c-0.042,0 -0.078,-0.008 -0.108,-0.024c-0.031,-0.017 -0.054,-0.039 -0.07,-0.066c-0.017,-0.028 -0.025,-0.059 -0.025,-0.093c0,-0.034 0.008,-0.065 0.025,-0.093c0.016,-0.027 0.039,-0.049 0.07,-0.066c0.03,-0.016 0.066,-0.025 0.108,-0.025c0.043,0 0.079,0.009 0.11,0.025c0.03,0.017 0.053,0.039 0.069,0.066c0.016,0.028 0.024,0.059 0.024,0.093c0,0.034 -0.008,0.065 -0.024,0.093c-0.016,0.027 -0.039,0.049 -0.069,0.066c-0.031,0.016 -0.067,0.024 -0.11,0.024Zm0,-0.103c0.026,0 0.047,-0.006 0.063,-0.02c0.016,-0.014 0.024,-0.033 0.024,-0.059c0,-0.026 -0.008,-0.046 -0.024,-0.06c-0.016,-0.013 -0.037,-0.02 -0.063,-0.02c-0.025,0 -0.046,0.007 -0.063,0.02c-0.016,0.014 -0.024,0.034 -0.024,0.06c-0,0.026 0.008,0.045 0.024,0.059c0.016,0.014 0.038,0.02 0.063,0.02Zm0.084,-0.156l-0.022,-0.096l0.207,0l0,0.08l-0.185,0.016Z" style="fill:#2e2d62;fill-rule:nonzero;"/></g><g transform="matrix(37,0,0,37,231.422,66.611)"><path d="M0.069,-0l0,-0.504l0.135,0l0,0.504l-0.135,-0Zm0.068,-0.573c-0.024,0 -0.044,-0.007 -0.06,-0.022c-0.015,-0.014 -0.023,-0.032 -0.023,-0.054c0,-0.022 0.008,-0.04 0.023,-0.055c0.016,-0.014 0.036,-0.021 0.06,-0.021c0.025,0 0.045,0.007 0.061,0.021c0.015,0.015 0.023,0.033 0.023,0.055c0,0.022 -0.008,0.04 -0.023,0.054c-0.016,0.015 -0.036,0.022 -0.061,0.022Z" style="fill:#2e2d62;fill-rule:nonzero;"/></g><g transform="matrix(37,0,0,37,241.56,66.611)"><path d="M0.293,-0c-0.035,-0 -0.066,-0.006 -0.092,-0.017c-0.027,-0.011 -0.047,-0.029 -0.062,-0.055c-0.015,-0.025 -0.022,-0.06 -0.022,-0.105l0,-0.214l-0.086,0l-0,-0.113l0.086,0l0.015,-0.137l0.12,-0l-0,0.137l0.133,0l-0,0.113l-0.133,0l0,0.216c0,0.022 0.005,0.038 0.015,0.047c0.01,0.009 0.027,0.013 0.051,0.013l0.066,0l-0,0.115l-0.091,-0Z" style="fill:#2e2d62;fill-rule:nonzero;"/></g><g transform="matrix(37,0,0,37,257.581,66.611)"><path d="M0.236,0.012c-0.042,0 -0.076,-0.007 -0.104,-0.02c-0.027,-0.014 -0.047,-0.033 -0.061,-0.056c-0.013,-0.023 -0.019,-0.048 -0.019,-0.076c-0,-0.031 0.007,-0.058 0.023,-0.081c0.016,-0.023 0.04,-0.042 0.072,-0.055c0.031,-0.013 0.071,-0.02 0.119,-0.02l0.125,0c-0,-0.025 -0.004,-0.045 -0.01,-0.061c-0.006,-0.016 -0.017,-0.029 -0.031,-0.037c-0.014,-0.008 -0.033,-0.012 -0.056,-0.012c-0.025,0 -0.046,0.006 -0.064,0.017c-0.018,0.011 -0.029,0.028 -0.033,0.05l-0.131,-0c0.004,-0.036 0.015,-0.067 0.036,-0.094c0.02,-0.026 0.047,-0.046 0.08,-0.061c0.034,-0.014 0.071,-0.021 0.113,-0.021c0.047,-0 0.089,0.007 0.123,0.023c0.035,0.016 0.061,0.039 0.08,0.069c0.018,0.03 0.028,0.067 0.028,0.111l-0,0.312l-0.114,-0l-0.015,-0.077c-0.007,0.013 -0.016,0.025 -0.026,0.036c-0.01,0.011 -0.022,0.02 -0.035,0.028c-0.013,0.008 -0.028,0.014 -0.045,0.018c-0.016,0.005 -0.035,0.007 -0.055,0.007Zm0.032,-0.104c0.017,-0 0.033,-0.004 0.047,-0.01c0.013,-0.006 0.025,-0.015 0.035,-0.026c0.01,-0.011 0.018,-0.023 0.024,-0.038c0.005,-0.014 0.009,-0.03 0.011,-0.046l0,-0.001l-0.103,-0c-0.02,-0 -0.037,0.002 -0.05,0.008c-0.013,0.005 -0.023,0.012 -0.029,0.021c-0.006,0.01 -0.009,0.02 -0.009,0.032c0,0.013 0.003,0.024 0.009,0.033c0.006,0.009 0.015,0.015 0.026,0.02c0.011,0.004 0.024,0.007 0.039,0.007Z" style="fill:#2e2d62;fill-rule:nonzero;"/></g><g transform="matrix(37,0,0,37,279.263,66.611)"><rect x="0.066" y="-0.72" width="0.135" height="0.72" style="fill:#2e2d62;fill-rule:nonzero;"/></g><g transform="matrix(37,0,0,37,297.837,66.611)"><path d="M0.069,-0l-0,-0.7l0.262,0c0.056,0 0.102,0.01 0.139,0.029c0.037,0.019 0.064,0.045 0.082,0.077c0.018,0.033 0.027,0.069 0.027,0.108c0,0.038 -0.008,0.073 -0.026,0.105c-0.018,0.032 -0.045,0.058 -0.082,0.078c-0.037,0.019 -0.084,0.029 -0.142,0.029l-0.125,0l-0,0.274l-0.135,0Zm0.363,0l-0.144,-0.308l0.146,0l0.152,0.308l-0.154,0Zm-0.228,-0.372l0.118,0c0.041,0 0.071,-0.01 0.09,-0.03c0.02,-0.02 0.029,-0.046 0.029,-0.079c0,-0.032 -0.009,-0.058 -0.028,-0.077c-0.019,-0.02 -0.05,-0.029 -0.091,-0.029l-0.118,-0l-0,0.215Z" style="fill:#2e2d62;fill-rule:nonzero;"/></g><g transform="matrix(37,0,0,37,320.074,66.611)"><path d="M0.308,0.012c-0.051,0 -0.096,-0.011 -0.134,-0.033c-0.039,-0.021 -0.07,-0.052 -0.091,-0.091c-0.022,-0.039 -0.033,-0.084 -0.033,-0.135c-0,-0.053 0.011,-0.099 0.032,-0.139c0.022,-0.041 0.052,-0.072 0.091,-0.095c0.038,-0.023 0.083,-0.034 0.135,-0.034c0.05,-0 0.094,0.01 0.131,0.032c0.037,0.022 0.067,0.052 0.087,0.089c0.021,0.037 0.031,0.08 0.031,0.127c0,0.007 0,0.015 0,0.023c-0,0.008 -0.001,0.016 -0.002,0.025l-0.409,0l0,-0.082l0.275,-0c-0.002,-0.032 -0.013,-0.058 -0.034,-0.077c-0.021,-0.019 -0.047,-0.028 -0.079,-0.028c-0.023,-0 -0.044,0.005 -0.063,0.016c-0.019,0.01 -0.034,0.026 -0.045,0.047c-0.011,0.021 -0.017,0.048 -0.017,0.081l-0,0.029c-0,0.027 0.005,0.051 0.016,0.071c0.01,0.021 0.024,0.036 0.043,0.047c0.019,0.011 0.04,0.017 0.065,0.017c0.025,-0 0.045,-0.006 0.062,-0.016c0.016,-0.01 0.028,-0.024 0.036,-0.041l0.138,-0c-0.009,0.031 -0.025,0.059 -0.047,0.085c-0.022,0.025 -0.049,0.045 -0.081,0.06c-0.032,0.015 -0.068,0.022 -0.107,0.022Z" style="fill:#2e2d62;fill-rule:nonzero;"/></g><g transform="matrix(37,0,0,37,342.348,66.611)"><path d="M0.272,0.012c-0.046,0 -0.086,-0.007 -0.12,-0.022c-0.034,-0.015 -0.06,-0.035 -0.08,-0.061c-0.019,-0.026 -0.03,-0.055 -0.033,-0.088l0.134,0c0.003,0.012 0.009,0.024 0.017,0.034c0.008,0.01 0.019,0.019 0.032,0.025c0.014,0.006 0.029,0.009 0.048,0.009c0.018,-0 0.033,-0.003 0.044,-0.008c0.012,-0.005 0.02,-0.012 0.026,-0.02c0.006,-0.008 0.008,-0.017 0.008,-0.027c0,-0.014 -0.004,-0.025 -0.012,-0.032c-0.008,-0.008 -0.02,-0.014 -0.035,-0.019c-0.016,-0.005 -0.034,-0.009 -0.056,-0.014c-0.024,-0.005 -0.047,-0.011 -0.07,-0.017c-0.023,-0.007 -0.044,-0.016 -0.062,-0.027c-0.018,-0.011 -0.033,-0.024 -0.043,-0.041c-0.011,-0.017 -0.016,-0.038 -0.016,-0.062c-0,-0.03 0.008,-0.057 0.024,-0.08c0.016,-0.024 0.04,-0.043 0.07,-0.057c0.031,-0.014 0.068,-0.02 0.111,-0.02c0.06,-0 0.109,0.013 0.144,0.04c0.036,0.028 0.056,0.065 0.063,0.113l-0.127,0c-0.004,-0.016 -0.013,-0.028 -0.027,-0.037c-0.013,-0.008 -0.032,-0.013 -0.054,-0.013c-0.024,0 -0.042,0.005 -0.055,0.013c-0.012,0.009 -0.019,0.02 -0.019,0.034c0,0.009 0.004,0.017 0.013,0.025c0.008,0.007 0.019,0.013 0.035,0.018c0.015,0.006 0.034,0.011 0.056,0.015c0.039,0.008 0.073,0.017 0.102,0.027c0.029,0.01 0.052,0.025 0.069,0.044c0.017,0.019 0.025,0.047 0.025,0.083c0,0.032 -0.008,0.061 -0.026,0.085c-0.017,0.025 -0.042,0.045 -0.073,0.059c-0.032,0.014 -0.07,0.021 -0.113,0.021Z" style="fill:#2e2d62;fill-rule:nonzero;"/></g><g transform="matrix(37,0,0,37,362.032,66.611)"><path d="M0.308,0.012c-0.051,0 -0.096,-0.011 -0.134,-0.033c-0.039,-0.021 -0.07,-0.052 -0.091,-0.091c-0.022,-0.039 -0.033,-0.084 -0.033,-0.135c-0,-0.053 0.011,-0.099 0.032,-0.139c0.022,-0.041 0.052,-0.072 0.091,-0.095c0.038,-0.023 0.083,-0.034 0.135,-0.034c0.05,-0 0.094,0.01 0.131,0.032c0.037,0.022 0.067,0.052 0.087,0.089c0.021,0.037 0.031,0.08 0.031,0.127c0,0.007 0,0.015 0,0.023c-0,0.008 -0.001,0.016 -0.002,0.025l-0.409,0l0,-0.082l0.275,-0c-0.002,-0.032 -0.013,-0.058 -0.034,-0.077c-0.021,-0.019 -0.047,-0.028 -0.079,-0.028c-0.023,-0 -0.044,0.005 -0.063,0.016c-0.019,0.01 -0.034,0.026 -0.045,0.047c-0.011,0.021 -0.017,0.048 -0.017,0.081l-0,0.029c-0,0.027 0.005,0.051 0.016,0.071c0.01,0.021 0.024,0.036 0.043,0.047c0.019,0.011 0.04,0.017 0.065,0.017c0.025,-0 0.045,-0.006 0.062,-0.016c0.016,-0.01 0.028,-0.024 0.036,-0.041l0.138,-0c-0.009,0.031 -0.025,0.059 -0.047,0.085c-0.022,0.025 -0.049,0.045 -0.081,0.06c-0.032,0.015 -0.068,0.022 -0.107,0.022Z" style="fill:#2e2d62;fill-rule:nonzero;"/></g><g transform="matrix(37,0,0,37,384.306,66.611)"><path d="M0.236,0.012c-0.042,0 -0.076,-0.007 -0.104,-0.02c-0.027,-0.014 -0.047,-0.033 -0.061,-0.056c-0.013,-0.023 -0.019,-0.048 -0.019,-0.076c-0,-0.031 0.007,-0.058 0.023,-0.081c0.016,-0.023 0.04,-0.042 0.072,-0.055c0.031,-0.013 0.071,-0.02 0.119,-0.02l0.125,0c-0,-0.025 -0.004,-0.045 -0.01,-0.061c-0.006,-0.016 -0.017,-0.029 -0.031,-0.037c-0.014,-0.008 -0.033,-0.012 -0.056,-0.012c-0.025,0 -0.046,0.006 -0.064,0.017c-0.018,0.011 -0.029,0.028 -0.033,0.05l-0.131,-0c0.004,-0.036 0.015,-0.067 0.036,-0.094c0.02,-0.026 0.047,-0.046 0.08,-0.061c0.034,-0.014 0.071,-0.021 0.113,-0.021c0.047,-0 0.089,0.007 0.123,0.023c0.035,0.016 0.061,0.039 0.08,0.069c0.018,0.03 0.028,0.067 0.028,0.111l-0,0.312l-0.114,-0l-0.015,-0.077c-0.007,0.013 -0.016,0.025 -0.026,0.036c-0.01,0.011 -0.022,0.02 -0.035,0.028c-0.013,0.008 -0.028,0.014 -0.045,0.018c-0.016,0.005 -0.035,0.007 -0.055,0.007Zm0.032,-0.104c0.017,-0 0.033,-0.004 0.047,-0.01c0.013,-0.006 0.025,-0.015 0.035,-0.026c0.01,-0.011 0.018,-0.023 0.024,-0.038c0.005,-0.014 0.009,-0.03 0.011,-0.046l0,-0.001l-0.103,-0c-0.02,-0 -0.037,0.002 -0.05,0.008c-0.013,0.005 -0.023,0.012 -0.029,0.021c-0.006,0.01 -0.009,0.02 -0.009,0.032c0,0.013 0.003,0.024 0.009,0.033c0.006,0.009 0.015,0.015 0.026,0.02c0.011,0.004 0.024,0.007 0.039,0.007Z" style="fill:#2e2d62;fill-rule:nonzero;"/></g><g transform="matrix(37,0,0,37,405.988,66.611)"><path d="M0.066,-0l-0,-0.504l0.12,0l0.013,0.093c0.012,-0.022 0.027,-0.04 0.046,-0.056c0.018,-0.015 0.039,-0.027 0.062,-0.036c0.024,-0.008 0.05,-0.012 0.079,-0.012l0,0.142l-0.046,0c-0.02,0 -0.039,0.002 -0.056,0.007c-0.017,0.004 -0.031,0.012 -0.044,0.022c-0.012,0.011 -0.022,0.025 -0.029,0.043c-0.007,0.018 -0.01,0.041 -0.01,0.068l-0,0.233l-0.135,-0Z" style="fill:#2e2d62;fill-rule:nonzero;"/></g><g transform="matrix(37,0,0,37,420.825,66.611)"><path d="M0.31,0.012c-0.051,0 -0.096,-0.011 -0.135,-0.034c-0.039,-0.022 -0.07,-0.053 -0.092,-0.093c-0.022,-0.039 -0.033,-0.084 -0.033,-0.135c-0,-0.052 0.011,-0.098 0.033,-0.138c0.022,-0.04 0.053,-0.071 0.092,-0.093c0.039,-0.023 0.084,-0.034 0.135,-0.034c0.065,-0 0.119,0.016 0.163,0.05c0.044,0.034 0.072,0.08 0.084,0.14l-0.143,-0c-0.006,-0.024 -0.019,-0.042 -0.037,-0.055c-0.019,-0.013 -0.042,-0.02 -0.068,-0.02c-0.023,-0 -0.044,0.006 -0.063,0.018c-0.018,0.011 -0.032,0.028 -0.043,0.051c-0.01,0.022 -0.015,0.048 -0.015,0.079c-0,0.023 0.003,0.044 0.009,0.062c0.006,0.019 0.014,0.034 0.025,0.047c0.011,0.013 0.024,0.023 0.038,0.03c0.015,0.007 0.032,0.01 0.049,0.01c0.018,0 0.034,-0.003 0.048,-0.009c0.014,-0.006 0.026,-0.014 0.036,-0.026c0.01,-0.011 0.017,-0.024 0.021,-0.04l0.143,-0c-0.012,0.058 -0.04,0.104 -0.084,0.138c-0.044,0.035 -0.099,0.052 -0.163,0.052Z" style="fill:#2e2d62;fill-rule:nonzero;"/></g><g transform="matrix(37,0,0,37,443.284,66.611)"><path d="M0.066,-0l-0,-0.72l0.135,0l-0,0.291c0.016,-0.026 0.039,-0.047 0.067,-0.063c0.027,-0.016 0.06,-0.023 0.096,-0.023c0.042,-0 0.077,0.008 0.106,0.026c0.029,0.017 0.05,0.042 0.065,0.076c0.015,0.034 0.022,0.075 0.022,0.124l0,0.289l-0.134,-0l0,-0.277c0,-0.04 -0.008,-0.071 -0.025,-0.092c-0.017,-0.022 -0.043,-0.033 -0.079,-0.033c-0.022,0 -0.042,0.005 -0.06,0.016c-0.018,0.011 -0.032,0.026 -0.043,0.046c-0.01,0.02 -0.015,0.045 -0.015,0.073l-0,0.267l-0.135,-0Z" style="fill:#2e2d62;fill-rule:nonzero;"/></g><g transform="matrix(37,0,0,37,173.073,108.611)"><path d="M0.31,0.012c-0.051,0 -0.096,-0.009 -0.136,-0.026c-0.039,-0.018 -0.071,-0.043 -0.093,-0.076c-0.023,-0.034 -0.035,-0.074 -0.036,-0.121l0.143,-0c0,0.021 0.006,0.04 0.016,0.056c0.01,0.017 0.024,0.03 0.041,0.039c0.018,0.01 0.04,0.015 0.064,0.015c0.021,-0 0.04,-0.004 0.056,-0.01c0.015,-0.007 0.027,-0.017 0.036,-0.03c0.009,-0.012 0.013,-0.028 0.013,-0.045c0,-0.02 -0.005,-0.036 -0.014,-0.05c-0.01,-0.013 -0.023,-0.025 -0.041,-0.034c-0.017,-0.01 -0.036,-0.018 -0.058,-0.026c-0.022,-0.008 -0.046,-0.015 -0.071,-0.024c-0.055,-0.018 -0.097,-0.042 -0.126,-0.072c-0.029,-0.03 -0.044,-0.069 -0.044,-0.119c0,-0.042 0.01,-0.078 0.031,-0.108c0.02,-0.03 0.048,-0.053 0.084,-0.069c0.036,-0.016 0.077,-0.024 0.123,-0.024c0.047,0 0.089,0.008 0.125,0.025c0.035,0.016 0.064,0.04 0.084,0.07c0.021,0.03 0.032,0.066 0.033,0.108l-0.144,0c-0.001,-0.015 -0.005,-0.03 -0.013,-0.044c-0.009,-0.013 -0.02,-0.024 -0.035,-0.033c-0.014,-0.008 -0.032,-0.012 -0.052,-0.012c-0.017,-0.001 -0.033,0.002 -0.047,0.008c-0.015,0.006 -0.026,0.015 -0.034,0.026c-0.008,0.012 -0.013,0.026 -0.013,0.044c0,0.016 0.005,0.031 0.013,0.042c0.008,0.011 0.019,0.021 0.034,0.029c0.015,0.008 0.032,0.016 0.052,0.023c0.02,0.007 0.041,0.014 0.065,0.022c0.035,0.012 0.067,0.026 0.096,0.042c0.029,0.016 0.052,0.038 0.07,0.064c0.017,0.026 0.026,0.06 0.026,0.103c-0,0.037 -0.01,0.071 -0.029,0.102c-0.019,0.032 -0.047,0.057 -0.083,0.076c-0.037,0.019 -0.082,0.029 -0.136,0.029Z" style="fill:#2e2d62;fill-rule:nonzero;"/></g><g transform="matrix(37,0,0,37,195.421,108.611)"><path d="M0.396,-0l-0.215,-0.276l0.193,-0.228l0.159,0l-0.249,0.285l0,-0.107l0.28,0.326l-0.168,-0Zm-0.33,-0l-0,-0.72l0.135,0l-0,0.72l-0.135,-0Z" style="fill:#2e2d62;fill-rule:nonzero;"/></g><g transform="matrix(37,0,0,37,216.807,108.611)"><path d="M0.069,-0l0,-0.504l0.135,0l0,0.504l-0.135,-0Zm0.068,-0.573c-0.024,0 -0.044,-0.007 -0.06,-0.022c-0.015,-0.014 -0.023,-0.032 -0.023,-0.054c0,-0.022 0.008,-0.04 0.023,-0.055c0.016,-0.014 0.036,-0.021 0.06,-0.021c0.025,0 0.045,0.007 0.061,0.021c0.015,0.015 0.023,0.033 0.023,0.055c0,0.022 -0.008,0.04 -0.023,0.054c-0.016,0.015 -0.036,0.022 -0.061,0.022Z" style="fill:#2e2d62;fill-rule:nonzero;"/></g><g transform="matrix(37,0,0,37,226.945,108.611)"><rect x="0.066" y="-0.72" width="0.135" height="0.72" style="fill:#2e2d62;fill-rule:nonzero;"/></g><g transform="matrix(37,0,0,37,236.824,108.611)"><rect x="0.066" y="-0.72" width="0.135" height="0.72" style="fill:#2e2d62;fill-rule:nonzero;"/></g><g transform="matrix(37,0,0,37,246.703,108.611)"><path d="M0.272,0.012c-0.046,0 -0.086,-0.007 -0.12,-0.022c-0.034,-0.015 -0.06,-0.035 -0.08,-0.061c-0.019,-0.026 -0.03,-0.055 -0.033,-0.088l0.134,0c0.003,0.012 0.009,0.024 0.017,0.034c0.008,0.01 0.019,0.019 0.032,0.025c0.014,0.006 0.029,0.009 0.048,0.009c0.018,-0 0.033,-0.003 0.044,-0.008c0.012,-0.005 0.02,-0.012 0.026,-0.02c0.006,-0.008 0.008,-0.017 0.008,-0.027c0,-0.014 -0.004,-0.025 -0.012,-0.032c-0.008,-0.008 -0.02,-0.014 -0.035,-0.019c-0.016,-0.005 -0.034,-0.009 -0.056,-0.014c-0.024,-0.005 -0.047,-0.011 -0.07,-0.017c-0.023,-0.007 -0.044,-0.016 -0.062,-0.027c-0.018,-0.011 -0.033,-0.024 -0.043,-0.041c-0.011,-0.017 -0.016,-0.038 -0.016,-0.062c-0,-0.03 0.008,-0.057 0.024,-0.08c0.016,-0.024 0.04,-0.043 0.07,-0.057c0.031,-0.014 0.068,-0.02 0.111,-0.02c0.06,-0 0.109,0.013 0.144,0.04c0.036,0.028 0.056,0.065 0.063,0.113l-0.127,0c-0.004,-0.016 -0.013,-0.028 -0.027,-0.037c-0.013,-0.008 -0.032,-0.013 -0.054,-0.013c-0.024,0 -0.042,0.005 -0.055,0.013c-0.012,0.009 -0.019,0.02 -0.019,0.034c0,0.009 0.004,0.017 0.013,0.025c0.008,0.007 0.019,0.013 0.035,0.018c0.015,0.006 0.034,0.011 0.056,0.015c0.039,0.008 0.073,0.017 0.102,0.027c0.029,0.01 0.052,0.025 0.069,0.044c0.017,0.019 0.025,0.047 0.025,0.083c0,0.032 -0.008,0.061 -0.026,0.085c-0.017,0.025 -0.042,0.045 -0.073,0.059c-0.032,0.014 -0.07,0.021 -0.113,0.021Z" style="fill:#2e2d62;fill-rule:nonzero;"/></g><g transform="matrix(37,0,0,37,275.082,108.611)"><path d="M0.383,0.012c-0.07,0 -0.13,-0.015 -0.18,-0.046c-0.051,-0.03 -0.089,-0.072 -0.117,-0.127c-0.027,-0.054 -0.04,-0.117 -0.04,-0.188c-0,-0.071 0.013,-0.135 0.04,-0.189c0.028,-0.055 0.066,-0.097 0.117,-0.128c0.05,-0.031 0.11,-0.046 0.18,-0.046c0.085,0 0.154,0.021 0.208,0.063c0.054,0.042 0.088,0.102 0.101,0.178l-0.147,0c-0.009,-0.037 -0.027,-0.066 -0.054,-0.087c-0.028,-0.021 -0.064,-0.032 -0.109,-0.032c-0.041,0 -0.077,0.01 -0.107,0.029c-0.03,0.02 -0.052,0.048 -0.068,0.083c-0.016,0.036 -0.024,0.079 -0.024,0.129c0,0.05 0.008,0.092 0.024,0.128c0.016,0.036 0.038,0.063 0.068,0.083c0.03,0.019 0.066,0.029 0.107,0.029c0.045,-0 0.081,-0.01 0.108,-0.03c0.028,-0.019 0.046,-0.046 0.054,-0.082l0.148,0c-0.013,0.073 -0.047,0.13 -0.101,0.171c-0.054,0.041 -0.123,0.062 -0.208,0.062Z" style="fill:#2e2d62;fill-rule:nonzero;"/></g><g transform="matrix(37,0,0,37,302.388,108.611)"><path d="M0.236,0.012c-0.042,0 -0.076,-0.007 -0.104,-0.02c-0.027,-0.014 -0.047,-0.033 -0.061,-0.056c-0.013,-0.023 -0.019,-0.048 -0.019,-0.076c-0,-0.031 0.007,-0.058 0.023,-0.081c0.016,-0.023 0.04,-0.042 0.072,-0.055c0.031,-0.013 0.071,-0.02 0.119,-0.02l0.125,0c-0,-0.025 -0.004,-0.045 -0.01,-0.061c-0.006,-0.016 -0.017,-0.029 -0.031,-0.037c-0.014,-0.008 -0.033,-0.012 -0.056,-0.012c-0.025,0 -0.046,0.006 -0.064,0.017c-0.018,0.011 -0.029,0.028 -0.033,0.05l-0.131,-0c0.004,-0.036 0.015,-0.067 0.036,-0.094c0.02,-0.026 0.047,-0.046 0.08,-0.061c0.034,-0.014 0.071,-0.021 0.113,-0.021c0.047,-0 0.089,0.007 0.123,0.023c0.035,0.016 0.061,0.039 0.08,0.069c0.018,0.03 0.028,0.067 0.028,0.111l-0,0.312l-0.114,-0l-0.015,-0.077c-0.007,0.013 -0.016,0.025 -0.026,0.036c-0.01,0.011 -0.022,0.02 -0.035,0.028c-0.013,0.008 -0.028,0.014 -0.045,0.018c-0.016,0.005 -0.035,0.007 -0.055,0.007Zm0.032,-0.104c0.017,-0 0.033,-0.004 0.047,-0.01c0.013,-0.006 0.025,-0.015 0.035,-0.026c0.01,-0.011 0.018,-0.023 0.024,-0.038c0.005,-0.014 0.009,-0.03 0.011,-0.046l0,-0.001l-0.103,-0c-0.02,-0 -0.037,0.002 -0.05,0.008c-0.013,0.005 -0.023,0.012 -0.029,0.021c-0.006,0.01 -0.009,0.02 -0.009,0.032c0,0.013 0.003,0.024 0.009,0.033c0.006,0.009 0.015,0.015 0.026,0.02c0.011,0.004 0.024,0.007 0.039,0.007Z" style="fill:#2e2d62;fill-rule:nonzero;"/></g><g transform="matrix(37,0,0,37,323.848,108.611)"><path d="M0.293,-0c-0.035,-0 -0.066,-0.006 -0.092,-0.017c-0.027,-0.011 -0.047,-0.029 -0.062,-0.055c-0.015,-0.025 -0.022,-0.06 -0.022,-0.105l0,-0.214l-0.086,0l-0,-0.113l0.086,0l0.015,-0.137l0.12,-0l-0,0.137l0.133,0l-0,0.113l-0.133,0l0,0.216c0,0.022 0.005,0.038 0.015,0.047c0.01,0.009 0.027,0.013 0.051,0.013l0.066,0l-0,0.115l-0.091,-0Z" style="fill:#2e2d62;fill-rule:nonzero;"/></g><g transform="matrix(37,0,0,37,339.869,108.611)"><path d="M0.236,0.012c-0.042,0 -0.076,-0.007 -0.104,-0.02c-0.027,-0.014 -0.047,-0.033 -0.061,-0.056c-0.013,-0.023 -0.019,-0.048 -0.019,-0.076c-0,-0.031 0.007,-0.058 0.023,-0.081c0.016,-0.023 0.04,-0.042 0.072,-0.055c0.031,-0.013 0.071,-0.02 0.119,-0.02l0.125,0c-0,-0.025 -0.004,-0.045 -0.01,-0.061c-0.006,-0.016 -0.017,-0.029 -0.031,-0.037c-0.014,-0.008 -0.033,-0.012 -0.056,-0.012c-0.025,0 -0.046,0.006 -0.064,0.017c-0.018,0.011 -0.029,0.028 -0.033,0.05l-0.131,-0c0.004,-0.036 0.015,-0.067 0.036,-0.094c0.02,-0.026 0.047,-0.046 0.08,-0.061c0.034,-0.014 0.071,-0.021 0.113,-0.021c0.047,-0 0.089,0.007 0.123,0.023c0.035,0.016 0.061,0.039 0.08,0.069c0.018,0.03 0.028,0.067 0.028,0.111l-0,0.312l-0.114,-0l-0.015,-0.077c-0.007,0.013 -0.016,0.025 -0.026,0.036c-0.01,0.011 -0.022,0.02 -0.035,0.028c-0.013,0.008 -0.028,0.014 -0.045,0.018c-0.016,0.005 -0.035,0.007 -0.055,0.007Zm0.032,-0.104c0.017,-0 0.033,-0.004 0.047,-0.01c0.013,-0.006 0.025,-0.015 0.035,-0.026c0.01,-0.011 0.018,-0.023 0.024,-0.038c0.005,-0.014 0.009,-0.03 0.011,-0.046l0,-0.001l-0.103,-0c-0.02,-0 -0.037,0.002 -0.05,0.008c-0.013,0.005 -0.023,0.012 -0.029,0.021c-0.006,0.01 -0.009,0.02 -0.009,0.032c0,0.013 0.003,0.024 0.009,0.033c0.006,0.009 0.015,0.015 0.026,0.02c0.011,0.004 0.024,0.007 0.039,0.007Z" style="fill:#2e2d62;fill-rule:nonzero;"/></g><g transform="matrix(37,0,0,37,361.551,108.611)"><rect x="0.066" y="-0.72" width="0.135" height="0.72" style="fill:#2e2d62;fill-rule:nonzero;"/></g><g transform="matrix(37,0,0,37,371.43,108.611)"><path d="M0.13,0.22l0.122,-0.276l-0.03,0l-0.202,-0.448l0.147,0l0.144,0.325l0.13,-0.325l0.143,0l-0.311,0.724l-0.143,0Z" style="fill:#2e2d62;fill-rule:nonzero;"/></g><g transform="matrix(37,0,0,37,392.89,108.611)"><path d="M0.272,0.012c-0.046,0 -0.086,-0.007 -0.12,-0.022c-0.034,-0.015 -0.06,-0.035 -0.08,-0.061c-0.019,-0.026 -0.03,-0.055 -0.033,-0.088l0.134,0c0.003,0.012 0.009,0.024 0.017,0.034c0.008,0.01 0.019,0.019 0.032,0.025c0.014,0.006 0.029,0.009 0.048,0.009c0.018,-0 0.033,-0.003 0.044,-0.008c0.012,-0.005 0.02,-0.012 0.026,-0.02c0.006,-0.008 0.008,-0.017 0.008,-0.027c0,-0.014 -0.004,-0.025 -0.012,-0.032c-0.008,-0.008 -0.02,-0.014 -0.035,-0.019c-0.016,-0.005 -0.034,-0.009 -0.056,-0.014c-0.024,-0.005 -0.047,-0.011 -0.07,-0.017c-0.023,-0.007 -0.044,-0.016 -0.062,-0.027c-0.018,-0.011 -0.033,-0.024 -0.043,-0.041c-0.011,-0.017 -0.016,-0.038 -0.016,-0.062c-0,-0.03 0.008,-0.057 0.024,-0.08c0.016,-0.024 0.04,-0.043 0.07,-0.057c0.031,-0.014 0.068,-0.02 0.111,-0.02c0.06,-0 0.109,0.013 0.144,0.04c0.036,0.028 0.056,0.065 0.063,0.113l-0.127,0c-0.004,-0.016 -0.013,-0.028 -0.027,-0.037c-0.013,-0.008 -0.032,-0.013 -0.054,-0.013c-0.024,0 -0.042,0.005 -0.055,0.013c-0.012,0.009 -0.019,0.02 -0.019,0.034c0,0.009 0.004,0.017 0.013,0.025c0.008,0.007 0.019,0.013 0.035,0.018c0.015,0.006 0.034,0.011 0.056,0.015c0.039,0.008 0.073,0.017 0.102,0.027c0.029,0.01 0.052,0.025 0.069,0.044c0.017,0.019 0.025,0.047 0.025,0.083c0,0.032 -0.008,0.061 -0.026,0.085c-0.017,0.025 -0.042,0.045 -0.073,0.059c-0.032,0.014 -0.07,0.021 -0.113,0.021Z" style="fill:#2e2d62;fill-rule:nonzero;"/></g><g transform="matrix(37,0,0,37,412.019,108.611)"><path d="M0.293,-0c-0.035,-0 -0.066,-0.006 -0.092,-0.017c-0.027,-0.011 -0.047,-0.029 -0.062,-0.055c-0.015,-0.025 -0.022,-0.06 -0.022,-0.105l0,-0.214l-0.086,0l-0,-0.113l0.086,0l0.015,-0.137l0.12,-0l-0,0.137l0.133,0l-0,0.113l-0.133,0l0,0.216c0,0.022 0.005,0.038 0.015,0.047c0.01,0.009 0.027,0.013 0.051,0.013l0.066,0l-0,0.115l-0.091,-0Z" style="fill:#2e2d62;fill-rule:nonzero;"/></g></g><g><rect x="26.5" y="26.5" width="106" height="106" style="fill:#2e2d63;fill-rule:nonzero;"/><path d="M108.475,79.499l-16.615,0l-0,-17.742l16.615,17.742Zm-14.488,32.986l-14.487,-0l-0,5.792l-10.197,-13.364c7.763,-1.429 11.773,-5.444 11.773,-12.435c-0,-1.724 -0.246,-3.264 -0.731,-4.629l13.642,-0l0,24.636Zm-43.463,-24.636l11.309,-0c4.649,-0 6.533,1.801 6.533,4.629c0,2.829 -1.884,4.688 -6.533,4.688l-11.309,-0l0,-9.317Zm28.976,-20.994l-0,19.176c-2.632,-4.444 -8.684,-6.507 -17.667,-6.53c8.015,-0.814 15.426,-5.138 17.667,-12.646Zm41.334,-28.69l-12.359,-0l-16.615,17.693l-0,-17.693l-24.011,-0l0,23.489c0,5.028 -3.723,7.947 -8.662,7.947c-4.939,-0 -8.663,-2.919 -8.663,-7.947l0,-23.489l-12.359,-0l-0,23.668c-0,10.6 8.558,16.681 18.212,17.666l-18.212,0l-0,41.335l12.359,-0l0,-15.319l5.4,0l11.421,15.319l53.489,-0l0,-8.349l-14.487,-0l0,-24.636l14.487,-0l0,-10.905l-17.715,-18.14l17.715,-18.083l0,-2.556Z" style="fill:#fff;fill-rule:nonzero;"/></g></g></svg>